<svg width="977" height="626" viewBox="0 0 977 626" fill="none" xmlns="http://www.w3.org/2000/svg">
<rect width="977" height="626" fill="#DBEAFE"/>
<path d="M0 0.834656H163.652V626H0V0.834656Z" fill="#BFDBFE"/>
<path d="M19.6382 60.096C19.6382 54.5643 24.0343 50.08 29.4573 50.08H134.194C139.617 50.08 144.013 54.5643 144.013 60.096V60.096C144.013 65.6277 139.617 70.112 134.194 70.112H29.4573C24.0343 70.112 19.6382 65.6277 19.6382 60.096V60.096Z" fill="#93C5FD"/>
<path d="M58.9146 130.208C58.9146 127.442 61.1127 125.2 63.8241 125.2H145.65C148.361 125.2 150.559 127.442 150.559 130.208V130.208C150.559 132.974 148.361 135.216 145.65 135.216H63.8241C61.1127 135.216 58.9146 132.974 58.9146 130.208V130.208Z" fill="white"/>
<path d="M58.9146 183.627C58.9146 180.861 61.1127 178.619 63.8241 178.619H120.284C122.995 178.619 125.193 180.861 125.193 183.627V183.627C125.193 186.392 122.995 188.635 120.284 188.635H63.8241C61.1127 188.635 58.9146 186.392 58.9146 183.627V183.627Z" fill="white"/>
<path d="M58.9146 237.045C58.9146 234.28 61.1127 232.037 63.8241 232.037H134.194C136.906 232.037 139.104 234.28 139.104 237.045V237.045C139.104 239.811 136.906 242.053 134.194 242.053H63.8241C61.1127 242.053 58.9146 239.811 58.9146 237.045V237.045Z" fill="white"/>
<path fill-rule="evenodd" clip-rule="evenodd" d="M32.7303 141.059C38.6052 141.059 43.3677 136.201 43.3677 130.208C43.3677 124.215 38.6052 119.357 32.7303 119.357C26.8555 119.357 22.093 124.215 22.093 130.208C22.093 136.201 26.8555 141.059 32.7303 141.059ZM32.7303 143.563C39.9609 143.563 45.8224 137.584 45.8224 130.208C45.8224 122.832 39.9609 116.853 32.7303 116.853C25.4997 116.853 19.6382 122.832 19.6382 130.208C19.6382 137.584 25.4997 143.563 32.7303 143.563Z" fill="#93C5FD"/>
<path d="M216.02 60.096C216.02 56.4082 218.951 53.4186 222.566 53.4186H317.484C321.099 53.4186 324.03 56.4082 324.03 60.096V60.096C324.03 63.7838 321.099 66.7733 317.484 66.7733H222.566C218.951 66.7733 216.02 63.7838 216.02 60.096V60.096Z" fill="#BFDBFE"/>
<path fill-rule="evenodd" clip-rule="evenodd" d="M389.9 329.327C389.948 324.566 393.656 320.512 398.421 320.512C401.346 320.512 403.498 321.989 404.871 323.38C405.253 323.767 405.581 324.153 405.856 324.509C406.131 324.153 406.459 323.767 406.841 323.38C408.214 321.989 410.366 320.512 413.291 320.512C418.056 320.512 421.764 324.566 421.812 329.327L421.812 329.327C421.903 338.612 414.589 345.036 407.237 350.126C406.83 350.409 406.348 350.56 405.856 350.56C405.363 350.56 404.882 350.409 404.475 350.126C397.123 345.036 389.808 338.612 389.9 329.327L389.9 329.327ZM406.952 327.335C406.744 327.757 406.32 328.024 405.856 328.024C405.392 328.024 404.968 327.757 404.76 327.335C404.759 327.335 404.759 327.334 404.758 327.332C404.757 327.329 404.754 327.324 404.751 327.318C404.749 327.314 404.747 327.31 404.744 327.305C404.731 327.279 404.708 327.236 404.676 327.179C404.611 327.064 404.511 326.894 404.374 326.686C404.1 326.268 403.688 325.711 403.141 325.157C402.042 324.043 400.476 323.016 398.421 323.016C395.092 323.016 392.39 325.87 392.355 329.352M406.952 327.335C406.953 327.335 406.953 327.334 406.954 327.332C406.956 327.328 406.961 327.319 406.968 327.305C406.981 327.279 407.004 327.236 407.036 327.179C407.101 327.064 407.201 326.894 407.337 326.686C407.612 326.268 408.024 325.711 408.571 325.157C409.67 324.043 411.236 323.016 413.291 323.016C416.62 323.016 419.322 325.87 419.357 329.352C419.434 337.176 413.273 342.92 405.857 348.055L405.856 348.056L405.855 348.055C398.438 342.92 392.278 337.177 392.355 329.352" fill="white"/>
<path d="M216.02 335.536C216.02 331.848 218.951 328.859 222.566 328.859H266.752C270.367 328.859 273.298 331.848 273.298 335.536V335.536C273.298 339.224 270.367 342.213 266.752 342.213H222.566C218.951 342.213 216.02 339.224 216.02 335.536V335.536Z" fill="#BFDBFE"/>
<path d="M286.39 335.536C286.39 331.848 289.321 328.859 292.936 328.859H366.58C370.195 328.859 373.126 331.848 373.126 335.536V335.536C373.126 339.224 370.195 342.213 366.58 342.213H292.936C289.321 342.213 286.39 339.224 286.39 335.536V335.536Z" fill="#BFDBFE"/>
<path d="M216.02 400.64C216.02 397.874 218.218 395.632 220.93 395.632H289.663C292.375 395.632 294.573 397.874 294.573 400.64V400.64C294.573 403.406 292.375 405.648 289.663 405.648H220.93C218.218 405.648 216.02 403.406 216.02 400.64V400.64Z" fill="white"/>
<path d="M216.02 424.011C216.02 421.245 218.218 419.003 220.93 419.003H326.485C329.196 419.003 331.394 421.245 331.394 424.011V424.011C331.394 426.777 329.196 429.019 326.485 429.019H220.93C218.218 429.019 216.02 426.777 216.02 424.011V424.011Z" fill="white"/>
<path d="M307.665 400.64C307.665 397.874 309.863 395.632 312.575 395.632H394.4C397.112 395.632 399.31 397.874 399.31 400.64V400.64C399.31 403.406 397.112 405.648 394.4 405.648H312.575C309.863 405.648 307.665 403.406 307.665 400.64V400.64Z" fill="white"/>
<path d="M216.02 125.2C216.02 122.434 218.218 120.192 220.93 120.192H289.663C292.375 120.192 294.573 122.434 294.573 125.2V125.2C294.573 127.966 292.375 130.208 289.663 130.208H220.93C218.218 130.208 216.02 127.966 216.02 125.2V125.2Z" fill="white"/>
<path d="M216.02 148.571C216.02 145.805 218.218 143.563 220.93 143.563H390.309C393.021 143.563 395.219 145.805 395.219 148.571V148.571C395.219 151.337 393.021 153.579 390.309 153.579H220.93C218.218 153.579 216.02 151.337 216.02 148.571V148.571Z" fill="white"/>
<path d="M307.665 125.2C307.665 122.434 309.863 120.192 312.575 120.192H499.137C501.849 120.192 504.047 122.434 504.047 125.2V125.2C504.047 127.966 501.849 130.208 499.137 130.208H312.575C309.863 130.208 307.665 127.966 307.665 125.2V125.2Z" fill="white"/>
<path fill-rule="evenodd" clip-rule="evenodd" d="M44.1859 172.776H22.9112V194.477H44.1859V172.776ZM20.4565 170.272V196.981H46.6407V170.272H20.4565Z" fill="#60A5FA"/>
<g clip-path="url(#clip0_3111_7059)">
<rect x="567.053" y="60.096" width="163.652" height="228.699" rx="20" fill="white"/>
<path d="M676.066 288.992C676.066 346.864 630.455 393.778 574.191 393.778C517.926 393.778 472.315 346.864 472.315 288.992C472.315 231.121 517.926 184.207 574.191 184.207C630.455 184.207 676.066 231.121 676.066 288.992Z" fill="#FACC15"/>
<path fill-rule="evenodd" clip-rule="evenodd" d="M753.423 149.164L700.192 94.8656L646.961 149.164L700.192 203.462L753.423 149.164ZM700.192 90.144L642.333 149.164L700.192 208.184L758.052 149.164L700.192 90.144Z" fill="#BFDBFE"/>
</g>
<path d="M33.5486 225.36L46.6407 248.491H20.4565L33.5486 225.36Z" fill="#93C5FD"/>
<rect x="756.889" y="60.096" width="163.652" height="168.603" rx="20" fill="white"/>
<path fill-rule="evenodd" clip-rule="evenodd" d="M830.505 185.811C846.821 185.811 859.936 172.444 859.936 156.094C859.936 139.744 846.821 126.377 830.505 126.377C814.19 126.377 801.075 139.744 801.075 156.094C801.075 172.444 814.19 185.811 830.505 185.811ZM830.505 194.157C851.279 194.157 868.119 177.116 868.119 156.094C868.119 135.072 851.279 118.031 830.505 118.031C809.732 118.031 792.892 135.072 792.892 156.094C792.892 177.116 809.732 194.157 830.505 194.157Z" fill="#BFDBFE"/>
<path d="M847.6 144.046L858.421 102.851L887.985 133.008L847.6 144.046Z" fill="#FACC15"/>
<g clip-path="url(#clip1_3111_7059)">
<rect x="567.053" y="315.504" width="163.652" height="255.408" rx="20" fill="white"/>
<path fill-rule="evenodd" clip-rule="evenodd" d="M720.476 603.464C766.345 603.464 803.529 565.534 803.529 518.745C803.529 471.957 766.345 434.027 720.476 434.027C674.607 434.027 637.423 471.957 637.423 518.745C637.423 565.534 674.607 603.464 720.476 603.464ZM720.476 611.811C770.864 611.811 811.712 570.144 811.712 518.745C811.712 467.347 770.864 425.68 720.476 425.68C670.088 425.68 629.24 467.347 629.24 518.745C629.24 570.144 670.088 611.811 720.476 611.811Z" fill="#FACC15"/>
<path d="M652.97 391.648C652.97 407.425 640.331 420.215 624.74 420.215C609.149 420.215 596.51 407.425 596.51 391.648C596.51 375.87 609.149 363.08 624.74 363.08C640.331 363.08 652.97 375.87 652.97 391.648Z" fill="#BFDBFE"/>
<path fill-rule="evenodd" clip-rule="evenodd" d="M624.74 417.711C638.994 417.711 650.515 406.023 650.515 391.648C650.515 377.272 638.994 365.584 624.74 365.584C610.486 365.584 598.965 377.272 598.965 391.648C598.965 406.023 610.486 417.711 624.74 417.711ZM624.74 420.215C640.331 420.215 652.97 407.425 652.97 391.648C652.97 375.87 640.331 363.08 624.74 363.08C609.149 363.08 596.51 375.87 596.51 391.648C596.51 407.425 609.149 420.215 624.74 420.215Z" fill="#BFDBFE"/>
</g>
<g clip-path="url(#clip2_3111_7059)">
<rect x="756.889" y="255.408" width="163.652" height="285.456" rx="20" fill="white"/>
<path d="M958.18 461.153C958.18 481.667 942.061 498.296 922.177 498.296C902.293 498.296 886.173 481.667 886.173 461.153C886.173 440.64 902.293 424.011 922.177 424.011C942.061 424.011 958.18 440.64 958.18 461.153Z" fill="white"/>
<path fill-rule="evenodd" clip-rule="evenodd" d="M922.177 495.792C940.679 495.792 955.725 480.31 955.725 461.153C955.725 441.996 940.679 426.515 922.177 426.515C903.674 426.515 888.628 441.996 888.628 461.153C888.628 480.31 903.674 495.792 922.177 495.792ZM922.177 498.296C942.061 498.296 958.18 481.667 958.18 461.153C958.18 440.64 942.061 424.011 922.177 424.011C902.293 424.011 886.173 440.64 886.173 461.153C886.173 481.667 902.293 498.296 922.177 498.296Z" fill="#BFDBFE"/>
<path d="M892.719 355.985C892.719 383.413 871.105 405.648 844.442 405.648C817.779 405.648 796.165 383.413 796.165 355.985C796.165 328.557 817.779 306.323 844.442 306.323C871.105 306.323 892.719 328.557 892.719 355.985Z" fill="#BFDBFE"/>
<path d="M787.164 451.555L789.473 458.329L796.503 458.476L790.9 462.809L792.936 469.674L787.164 465.577L781.393 469.674L783.429 462.809L777.826 458.476L784.856 458.329L787.164 451.555Z" fill="#FACC15"/>
<path d="M820.713 451.555L823.021 458.329L830.051 458.476L824.448 462.809L826.484 469.674L820.713 465.577L814.941 469.674L816.977 462.809L811.374 458.476L818.404 458.329L820.713 451.555Z" fill="#FACC15"/>
<path d="M854.261 451.555L856.57 458.329L863.6 458.476L857.997 462.809L860.033 469.674L854.261 465.577L848.49 469.674L850.526 462.809L844.923 458.476L851.953 458.329L854.261 451.555Z" fill="#FACC15"/>
<path d="M887.81 451.555L890.118 458.329L897.148 458.476L891.545 462.809L893.581 469.674L887.81 465.577L882.038 469.674L884.074 462.809L878.471 458.476L885.501 458.329L887.81 451.555Z" fill="#FACC15"/>
<path d="M921.358 451.555L923.667 458.329L930.697 458.476L925.094 462.809L927.13 469.674L921.358 465.577L915.587 469.674L917.623 462.809L912.02 458.476L919.05 458.329L921.358 451.555Z" fill="#FACC15"/>
</g>
<defs>
<clipPath id="clip0_3111_7059">
<rect x="567.053" y="60.096" width="163.652" height="228.699" rx="20" fill="white"/>
</clipPath>
<clipPath id="clip1_3111_7059">
<rect x="567.053" y="315.504" width="163.652" height="255.408" rx="20" fill="white"/>
</clipPath>
<clipPath id="clip2_3111_7059">
<rect x="756.889" y="255.408" width="163.652" height="285.456" rx="20" fill="white"/>
</clipPath>
</defs>
</svg>
