<svg width="362" height="762" viewBox="0 0 362 762" fill="none" xmlns="http://www.w3.org/2000/svg">
<g filter="url(#filter0_d_352_42092)">
<g clip-path="url(#clip0_352_42092)">
<path d="M0 0H350V750H0V0Z" fill="#DBEAFE"/>
<path d="M32 521C32 509.954 40.9543 501 52 501H298C309.046 501 318 509.954 318 521V677C318 688.046 309.046 697 298 697H52C40.9543 697 32 688.046 32 677V521Z" fill="white"/>
<mask id="mask0_352_42092" style="mask-type:alpha" maskUnits="userSpaceOnUse" x="32" y="501" width="286" height="196">
<path d="M32 521C32 509.954 40.9543 501 52 501H298C309.046 501 318 509.954 318 521V677C318 688.046 309.046 697 298 697H52C40.9543 697 32 688.046 32 677V521Z" fill="white"/>
</mask>
<g mask="url(#mask0_352_42092)">
<path d="M247 566.5C247 577.27 238.27 586 227.5 586C216.73 586 208 577.27 208 566.5C208 555.73 216.73 547 227.5 547C238.27 547 247 555.73 247 566.5Z" fill="#FACC15"/>
<path d="M181 538.5C181 583.511 144.511 620 99.5 620C54.4888 620 18 583.511 18 538.5C18 493.489 54.4888 457 99.5 457C144.511 457 181 493.489 181 538.5Z" fill="white"/>
<path fill-rule="evenodd" clip-rule="evenodd" d="M99.5 610C138.988 610 171 577.988 171 538.5C171 499.012 138.988 467 99.5 467C60.0116 467 28 499.012 28 538.5C28 577.988 60.0116 610 99.5 610ZM99.5 620C144.511 620 181 583.511 181 538.5C181 493.489 144.511 457 99.5 457C54.4888 457 18 493.489 18 538.5C18 583.511 54.4888 620 99.5 620Z" fill="#DBEAFE"/>
</g>
<path d="M318 722L142 722L318 554L318 722Z" fill="#BFDBFE"/>
<path d="M32 463C32 459.686 34.6863 457 38 457H182C185.314 457 188 459.686 188 463C188 466.314 185.314 469 182 469H38C34.6863 469 32 466.314 32 463Z" fill="white"/>
<mask id="path-11-inside-1_352_42092" fill="white">
<path d="M0 654H350V750H0V654Z"/>
</mask>
<path d="M0 654H350V750H0V654Z" fill="#DBEAFE"/>
<path d="M0 657H350V651H0V657Z" fill="white" mask="url(#path-11-inside-1_352_42092)"/>
<path fill-rule="evenodd" clip-rule="evenodd" d="M48.5599 682.501C49.27 682.53 49.8628 683.052 49.9796 683.753L54.8857 713.19L59.0577 698.588C59.2384 697.956 59.8099 697.515 60.4674 697.5C61.1249 697.486 61.7151 697.902 61.923 698.526L64.5811 706.5H69.5C70.3284 706.5 71 707.172 71 708C71 708.828 70.3284 709.5 69.5 709.5H63.5C62.8544 709.5 62.2811 709.087 62.077 708.474L60.6103 704.074L55.9423 720.412C55.7496 721.086 55.1154 721.537 54.4152 721.498C53.715 721.458 53.1357 720.938 53.0204 720.247L48.2061 691.36L43.9552 708.364C43.7883 709.032 43.1883 709.5 42.5 709.5H36.5C35.6716 709.5 35 708.828 35 708C35 707.172 35.6716 706.5 36.5 706.5H41.3288L47.0448 683.636C47.2172 682.947 47.8497 682.473 48.5599 682.501Z" fill="white"/>
<path fill-rule="evenodd" clip-rule="evenodd" d="M72.5 706.5C71.6716 706.5 71 707.172 71 708C71 708.828 71.6716 709.5 72.5 709.5C73.3284 709.5 74 708.828 74 708C74 707.172 73.3284 706.5 72.5 706.5ZM68 708C68 705.515 70.0147 703.5 72.5 703.5C74.9853 703.5 77 705.515 77 708C77 710.485 74.9853 712.5 72.5 712.5C70.0147 712.5 68 710.485 68 708Z" fill="white"/>
<path fill-rule="evenodd" clip-rule="evenodd" d="M162.712 685.235C165.38 683.452 168.518 682.5 171.727 682.5V684L171.727 682.5C176.031 682.5 180.158 684.21 183.201 687.253C186.244 690.296 187.954 694.423 187.954 698.727V698.727C187.954 701.937 187.003 705.074 185.22 707.743C183.437 710.411 180.902 712.491 177.937 713.719C174.972 714.947 171.709 715.269 168.561 714.643C165.414 714.016 162.522 712.471 160.253 710.202C157.983 707.932 156.438 705.041 155.812 701.893C155.186 698.745 155.507 695.482 156.735 692.517C157.963 689.552 160.043 687.018 162.712 685.235ZM171.727 685.5C175.235 685.5 178.599 686.894 181.08 689.374C183.56 691.855 184.954 695.219 184.954 698.727M171.727 685.5C169.111 685.5 166.554 686.276 164.379 687.729C162.203 689.183 160.508 691.248 159.507 693.665C158.506 696.082 158.244 698.742 158.754 701.308C159.265 703.874 160.524 706.23 162.374 708.08C164.224 709.93 166.581 711.19 169.147 711.7C171.713 712.211 174.372 711.949 176.789 710.948C179.206 709.946 181.272 708.251 182.725 706.076C184.179 703.901 184.954 701.343 184.954 698.727" fill="white"/>
<path fill-rule="evenodd" clip-rule="evenodd" d="M181.654 708.654C182.24 708.068 183.19 708.068 183.775 708.654L194.061 718.939C194.646 719.525 194.646 720.475 194.061 721.061C193.475 721.646 192.525 721.646 191.939 721.061L181.654 710.775C181.068 710.19 181.068 709.24 181.654 708.654Z" fill="white"/>
<path fill-rule="evenodd" clip-rule="evenodd" d="M276 693C276 692.172 276.672 691.5 277.5 691.5H310.5C311.328 691.5 312 692.172 312 693C312 693.828 311.328 694.5 310.5 694.5H277.5C276.672 694.5 276 693.828 276 693Z" fill="white"/>
<path fill-rule="evenodd" clip-rule="evenodd" d="M276 702C276 701.172 276.672 700.5 277.5 700.5H310.5C311.328 700.5 312 701.172 312 702C312 702.828 311.328 703.5 310.5 703.5H277.5C276.672 703.5 276 702.828 276 702Z" fill="white"/>
<path fill-rule="evenodd" clip-rule="evenodd" d="M276 711C276 710.172 276.672 709.5 277.5 709.5H310.5C311.328 709.5 312 710.172 312 711C312 711.828 311.328 712.5 310.5 712.5H277.5C276.672 712.5 276 711.828 276 711Z" fill="white"/>
<path fill-rule="evenodd" clip-rule="evenodd" d="M56.466 85.909C57.3447 86.7877 57.3447 88.2123 56.466 89.091L44.557 101L56.466 112.909C57.3447 113.788 57.3447 115.212 56.466 116.091C55.5873 116.97 54.1627 116.97 53.284 116.091L39.784 102.591C38.9053 101.712 38.9053 100.288 39.784 99.409L53.284 85.909C54.1627 85.0303 55.5873 85.0303 56.466 85.909Z" fill="white"/>
<path fill-rule="evenodd" clip-rule="evenodd" d="M41 101C41 99.7574 42.0074 98.75 43.25 98.75H70.625C71.8676 98.75 72.875 99.7574 72.875 101C72.875 102.243 71.8676 103.25 70.625 103.25H43.25C42.0074 103.25 41 102.243 41 101Z" fill="white"/>
<path d="M109 101C109 96.5817 112.582 93 117 93H233C237.418 93 241 96.5817 241 101C241 105.418 237.418 109 233 109H117C112.582 109 109 105.418 109 101Z" fill="#BFDBFE"/>
<path d="M32 179C32 175.686 34.6863 173 38 173H122C125.314 173 128 175.686 128 179C128 182.314 125.314 185 122 185H38C34.6863 185 32 182.314 32 179Z" fill="white"/>
<path d="M32 207C32 203.686 34.6863 201 38 201H167C170.314 201 173 203.686 173 207C173 210.314 170.314 213 167 213H38C34.6863 213 32 210.314 32 207Z" fill="white"/>
<path d="M144 179C144 175.686 146.686 173 150 173H250C253.314 173 256 175.686 256 179C256 182.314 253.314 185 250 185H150C146.686 185 144 182.314 144 179Z" fill="white"/>
<g clip-path="url(#clip1_352_42092)">
<rect x="32" y="245" width="120" height="164" rx="20" fill="white"/>
<path d="M111.935 409.142C111.935 450.641 78.4904 484.283 37.2338 484.283C-4.02272 484.283 -37.4678 450.641 -37.4678 409.142C-37.4678 367.642 -4.02272 334 37.2338 334C78.4904 334 111.935 367.642 111.935 409.142Z" fill="#FACC15"/>
<path d="M131.919 294.297C131.919 309.363 119.777 321.577 104.798 321.577C89.8199 321.577 77.6774 309.363 77.6774 294.297C77.6774 279.23 89.8199 267.016 104.798 267.016C119.777 267.016 131.919 279.23 131.919 294.297Z" fill="white"/>
<path fill-rule="evenodd" clip-rule="evenodd" d="M104.798 318.577C118.103 318.577 128.919 307.723 128.919 294.297C128.919 280.87 118.103 270.016 104.798 270.016C91.4933 270.016 80.6774 280.87 80.6774 294.297C80.6774 307.723 91.4933 318.577 104.798 318.577ZM104.798 321.577C119.777 321.577 131.919 309.363 131.919 294.297C131.919 279.23 119.777 267.016 104.798 267.016C89.8199 267.016 77.6774 279.23 77.6774 294.297C77.6774 309.363 89.8199 321.577 104.798 321.577Z" fill="#BFDBFE"/>
</g>
<rect x="168" y="245" width="120" height="164" rx="20" fill="white"/>
<path d="M271.548 289.032C271.548 296.433 265.482 302.433 258 302.433C250.517 302.433 244.452 296.433 244.452 289.032C244.452 281.631 250.517 275.631 258 275.631C265.482 275.631 271.548 281.631 271.548 289.032Z" fill="#FACC15"/>
<path d="M250.258 362.259C250.258 377.326 237.91 389.54 222.677 389.54C207.445 389.54 195.097 377.326 195.097 362.259C195.097 347.193 207.445 334.979 222.677 334.979C237.91 334.979 250.258 347.193 250.258 362.259Z" fill="#BFDBFE"/>
<path fill-rule="evenodd" clip-rule="evenodd" d="M222.677 386.54C236.284 386.54 247.258 375.638 247.258 362.259C247.258 348.88 236.284 337.979 222.677 337.979C209.071 337.979 198.097 348.88 198.097 362.259C198.097 375.638 209.071 386.54 222.677 386.54ZM222.677 389.54C237.91 389.54 250.258 377.326 250.258 362.259C250.258 347.193 237.91 334.979 222.677 334.979C207.445 334.979 195.097 347.193 195.097 362.259C195.097 377.326 207.445 389.54 222.677 389.54Z" fill="#BFDBFE"/>
<rect x="304" y="245" width="120" height="164" rx="20" fill="white"/>
<path d="M350 287L359.405 314.056L388.042 314.639L365.217 331.944L373.511 359.361L350 343L326.489 359.361L334.783 331.944L311.958 314.639L340.595 314.056L350 287Z" fill="white"/>
<path fill-rule="evenodd" clip-rule="evenodd" d="M359.405 314.056L350 287L340.595 314.056L311.958 314.639L334.783 331.944L326.489 359.361L350 343L373.511 359.361L365.217 331.944L388.042 314.639L359.405 314.056ZM379.352 317.463L357.256 317.013L350 296.137L342.744 317.013L320.648 317.463L338.259 330.815L331.859 351.969L350 339.345L368.141 351.969L361.741 330.815L379.352 317.463Z" fill="#FACC15"/>
</g>
<rect x="1" y="1" width="348" height="748" rx="19" stroke="#0F172A" stroke-width="2" shape-rendering="crispEdges"/>
</g>
<defs>
<filter id="filter0_d_352_42092" x="0" y="0" width="362" height="762" filterUnits="userSpaceOnUse" color-interpolation-filters="sRGB">
<feFlood flood-opacity="0" result="BackgroundImageFix"/>
<feColorMatrix in="SourceAlpha" type="matrix" values="0 0 0 0 0 0 0 0 0 0 0 0 0 0 0 0 0 0 127 0" result="hardAlpha"/>
<feOffset dx="12" dy="12"/>
<feComposite in2="hardAlpha" operator="out"/>
<feColorMatrix type="matrix" values="0 0 0 0 0.0588235 0 0 0 0 0.0901961 0 0 0 0 0.164706 0 0 0 1 0"/>
<feBlend mode="normal" in2="BackgroundImageFix" result="effect1_dropShadow_352_42092"/>
<feBlend mode="normal" in="SourceGraphic" in2="effect1_dropShadow_352_42092" result="shape"/>
</filter>
<clipPath id="clip0_352_42092">
<rect width="350" height="750" rx="20" fill="white"/>
</clipPath>
<clipPath id="clip1_352_42092">
<rect x="32" y="245" width="120" height="164" rx="20" fill="white"/>
</clipPath>
</defs>
</svg>
